<?xml version="1.0" encoding="UTF-8" standalone="no"?>
<svg
   xmlns:dc="http://purl.org/dc/elements/1.1/"
   xmlns:cc="http://creativecommons.org/ns#"
   xmlns:rdf="http://www.w3.org/1999/02/22-rdf-syntax-ns#"
   xmlns:svg="http://www.w3.org/2000/svg"
   xmlns="http://www.w3.org/2000/svg"
   viewBox="0 0 1937.88 298.41599"
   height="298.41599"
   width="1937.88"
   xml:space="preserve"
   id="svg10"
   version="1.1"><metadata
     id="metadata16"><rdf:RDF><cc:Work
         rdf:about=""><dc:format>image/svg+xml</dc:format><dc:type
           rdf:resource="http://purl.org/dc/dcmitype/StillImage" /><dc:title></dc:title></cc:Work></rdf:RDF></metadata><defs
     id="defs14"><clipPath
       id="clipPath58"
       clipPathUnits="userSpaceOnUse"><path
         id="path56"
         d="M 0,223.812 H 1453.409 V 0 H 0 Z" /></clipPath><clipPath
       id="clipPath70"
       clipPathUnits="userSpaceOnUse"><path
         id="path68"
         d="m 734.529,100.863 c 0,-17.959 15.16,-30.101 32.28,-30.101 v 0 c 17.12,0 32.269,12.142 32.269,30.101 v 0 c 0,17.951 -15.149,30.094 -32.269,30.094 v 0 c -17.12,0 -32.28,-12.143 -32.28,-30.094 m 15.259,0 c 0,10.481 7.471,17.123 17.021,17.123 v 0 c 9.439,0 16.91,-6.642 16.91,-17.123 v 0 c 0,-10.48 -7.471,-17.12 -16.91,-17.12 v 0 c -9.55,0 -17.021,6.64 -17.021,17.12" /></clipPath><clipPath
       id="clipPath80"
       clipPathUnits="userSpaceOnUse"><path
         id="path78"
         d="M 0,223.812 H 1453.409 V 0 H 0 Z" /></clipPath><clipPath
       id="clipPath92"
       clipPathUnits="userSpaceOnUse"><path
         id="path90"
         d="M 808.319,129.608 V 72.223 h 15.249 v 12.239 h 17.851 l 6.54,-12.239 h 16.6 l -8.71,15.67 c 6.43,3.84 10.38,10.37 10.38,18.88 v 0 c 0,13.597 -10.17,22.835 -23.98,22.835 v 0 z m 15.249,-13.906 h 18.062 c 5.399,0 9.239,-3.425 9.239,-8.929 v 0 c 0,-5.6 -3.84,-8.4 -9.239,-8.4 v 0 h -18.062 z" /></clipPath><clipPath
       id="clipPath102"
       clipPathUnits="userSpaceOnUse"><path
         id="path100"
         d="M 0,223.812 H 1453.409 V 0 H 0 Z" /></clipPath><clipPath
       id="clipPath114"
       clipPathUnits="userSpaceOnUse"><path
         id="path112"
         d="m 916.448,129.608 -13.799,-20.236 h -13.49 v 20.236 h -15.15 V 72.223 h 15.15 v 23.14 h 13.91 l 14.11,-23.14 h 18.16 l -19.72,30.82 18.47,26.565 z" /></clipPath><clipPath
       id="clipPath124"
       clipPathUnits="userSpaceOnUse"><path
         id="path122"
         d="M 0,223.812 H 1453.409 V 0 H 0 Z" /></clipPath><clipPath
       id="clipPath136"
       clipPathUnits="userSpaceOnUse"><path
         id="path134"
         d="m 970.519,100.863 c 0,-17.959 15.15,-30.101 32.269,-30.101 v 0 c 17.132,0 32.28,12.142 32.28,30.101 v 0 c 0,17.951 -15.148,30.094 -32.28,30.094 v 0 c -17.119,0 -32.269,-12.143 -32.269,-30.094 m 15.25,0 c 0,10.481 7.479,17.123 17.019,17.123 v 0 c 9.451,0 16.921,-6.642 16.921,-17.123 v 0 c 0,-10.48 -7.47,-17.12 -16.921,-17.12 v 0 c -9.54,0 -17.019,6.64 -17.019,17.12" /></clipPath><clipPath
       id="clipPath146"
       clipPathUnits="userSpaceOnUse"><path
         id="path144"
         d="M 0,223.812 H 1453.409 V 0 H 0 Z" /></clipPath><clipPath
       id="clipPath158"
       clipPathUnits="userSpaceOnUse"><path
         id="path156"
         d="M 1044.3,129.608 V 72.223 h 53.139 v 13.8 h -37.88 v 43.585 z" /></clipPath><clipPath
       id="clipPath168"
       clipPathUnits="userSpaceOnUse"><path
         id="path166"
         d="M 0,223.812 H 1453.409 V 0 H 0 Z" /></clipPath><clipPath
       id="clipPath180"
       clipPathUnits="userSpaceOnUse"><path
         id="path178"
         d="m 1144.549,129.608 -15.981,-28.745 h -0.409 l -16.71,28.745 h -17.54 l 26.46,-43.065 v -14.32 h 15.049 v 14.32 l 26.671,43.065 z" /></clipPath><clipPath
       id="clipPath190"
       clipPathUnits="userSpaceOnUse"><path
         id="path188"
         d="M 0,223.812 H 1453.409 V 0 H 0 Z" /></clipPath><clipPath
       id="clipPath202"
       clipPathUnits="userSpaceOnUse"><path
         id="path200"
         d="m 1227.049,129.608 -19.3,-38.295 h -0.41 l -17.85,38.295 h -19.51 V 72.223 h 14.839 v 36.11 l 16.391,-36.11 h 12.25 l 16.71,36.11 v -36.11 h 15.249 v 57.385 z" /></clipPath><clipPath
       id="clipPath212"
       clipPathUnits="userSpaceOnUse"><path
         id="path210"
         d="M 0,223.812 H 1453.409 V 0 H 0 Z" /></clipPath><clipPath
       id="clipPath224"
       clipPathUnits="userSpaceOnUse"><path
         id="path222"
         d="M 1255.18,129.608 V 72.223 h 15.249 v 12.239 h 18.68 c 13.809,0 23.98,8.721 23.98,22.311 v 0 c 0,13.597 -10.171,22.835 -23.98,22.835 v 0 z m 15.249,-13.906 h 18.06 c 5.401,0 9.24,-3.425 9.24,-8.929 v 0 c 0,-5.6 -3.839,-8.4 -9.24,-8.4 v 0 h -18.06 z" /></clipPath><clipPath
       id="clipPath234"
       clipPathUnits="userSpaceOnUse"><path
         id="path232"
         d="M 0,223.812 H 1453.409 V 0 H 0 Z" /></clipPath><clipPath
       id="clipPath246"
       clipPathUnits="userSpaceOnUse"><path
         id="path244"
         d="m 1364.349,129.608 v -29.365 c 0,-10.17 -4.46,-16.089 -14.219,-16.089 v 0 c -9.851,0 -14.321,5.919 -14.321,16.089 v 0 29.365 h -15.25 v -29.265 c 0,-18.989 11.519,-29.581 29.571,-29.581 v 0 c 18.059,0 29.579,10.592 29.579,29.581 v 0 29.265 z" /></clipPath><clipPath
       id="clipPath256"
       clipPathUnits="userSpaceOnUse"><path
         id="path254"
         d="M 0,223.812 H 1453.409 V 0 H 0 Z" /></clipPath><clipPath
       id="clipPath268"
       clipPathUnits="userSpaceOnUse"><path
         id="path266"
         d="m 1390.299,112.589 c 0,-11.106 7.26,-15.876 19.4,-17.337 v 0 l 19.72,-2.278 c 3.63,-0.311 4.15,-1.351 4.15,-3.32 v 0 c 0,-3.841 -6.229,-5.601 -14.11,-5.601 v 0 c -8.82,0 -16.711,2.801 -24.49,8.301 v 0 l -7.16,-11.831 c 9.439,-7.16 18.359,-9.761 30.3,-9.761 v 0 c 17.22,0 30.3,5.922 30.3,19.101 v 0 c 0,11.1 -7.78,16.189 -20.44,17.74 v 0 l -16.71,1.87 c -3.43,0.421 -5.92,0.829 -5.92,3.22 v 0 c 0,2.49 2.18,4.669 11.94,4.669 v 0 c 8.919,0 15.88,-1.868 22.52,-6.749 v 0 l 7.369,11.211 c -9.139,7.057 -18.89,9.133 -29.889,9.133 v 0 c -14.841,0 -26.98,-5.812 -26.98,-18.368" /></clipPath><clipPath
       id="clipPath278"
       clipPathUnits="userSpaceOnUse"><path
         id="path276"
         d="m 5,4.999 h 150.223 l 21.98,21.901 32.061,32.081 26.932,26.899 8.003,7.959 11.086,11.09 62.596,-62.618 H 265.295 L 249.88,65.42 222.963,38.54 245.309,4.999 H 407.948 L 255.285,157.705 215.118,117.538 147.566,218.812 Z M 147.566,151.574 188.201,90.66 139.825,42.311 H 74.716 Z" /></clipPath><clipPath
       id="clipPath288"
       clipPathUnits="userSpaceOnUse"><path
         id="path286"
         d="m 236.196,85.88 8.003,7.959 z" /></clipPath><clipPath
       id="clipPath298"
       clipPathUnits="userSpaceOnUse"><path
         id="path296"
         d="m 177.203,26.9 32.061,32.081 z" /></clipPath><clipPath
       id="clipPath308"
       clipPathUnits="userSpaceOnUse"><path
         id="path306"
         d="M 209.264,58.981 222.963,38.54 249.88,65.42 236.196,85.88 Z" /></clipPath></defs><g
     transform="matrix(1.3333333,0,0,-1.3333333,0,298.416)"
     id="g18"><g
       transform="translate(448.4209,129.6082)"
       id="g20"><path
         id="path22"
         style="fill:#1baa88;fill-opacity:1;fill-rule:evenodd;stroke:none"
         d="M 0,0 30.717,-34.665 V 0 H 45.869 V -57.385 H 31.859 L 1.141,-22.726 V -57.385 H -13.906 V 0 Z" /></g><g
       transform="translate(479.1384,129.6081)"
       id="g24"><path
         id="path26"
         style="fill:#1baa88;fill-opacity:1;fill-rule:nonzero;stroke:none"
         d="M 0,0 V -34.665 L -30.718,0 h -13.905 v -57.385 h 15.046 v 34.66 l 30.718,-34.66 h 14.01 l 0,57.385 z" /></g><g
       transform="translate(556.8672,129.6082)"
       id="g28"><path
         id="path30"
         style="fill:#1baa88;fill-opacity:1;fill-rule:evenodd;stroke:none"
         d="m 0,0 v -13.803 h -37.566 v -7.572 h 33.727 v -13.811 h -33.727 v -8.089 H 1.349 v -14.11 h -54.17 V 0 Z" /></g><g
       transform="translate(504.0459,129.6081)"
       id="g32"><path
         id="path34"
         style="fill:#1baa88;fill-opacity:1;fill-rule:nonzero;stroke:none"
         d="m 0,0 v -57.385 h 54.17 v 14.109 H 15.255 v 8.091 h 33.727 v 13.81 H 15.255 v 7.572 h 37.566 l 0,13.803 z" /></g><g
       transform="translate(625.5659,129.6082)"
       id="g36"><path
         id="path38"
         style="fill:#1baa88;fill-opacity:1;fill-rule:evenodd;stroke:none"
         d="M 0,0 V -13.699 H -22.311 V -57.385 H -37.67 v 43.686 H -59.982 V 0 Z" /></g><g
       transform="translate(565.5843,129.6081)"
       id="g40"><path
         id="path42"
         style="fill:#1baa88;fill-opacity:1;fill-rule:nonzero;stroke:none"
         d="M 0,0 V -13.699 H 22.312 V -57.385 H 37.67 v 43.686 H 59.981 V 0 Z" /></g><g
       transform="translate(647.9819,129.6082)"
       id="g44"><path
         id="path46"
         style="fill:#1baa88;fill-opacity:1;fill-rule:evenodd;stroke:none"
         d="m 0,0 13.179,-44.415 h 0.415 L 24.802,0 h 17.331 l 11.103,-44.415 h 0.415 L 67.246,0 H 83.327 L 62.473,-57.385 H 42.651 l -9.443,40.158 -9.859,-40.158 H 3.839 L -16.189,0 Z" /></g><g
       transform="translate(715.2282,129.6081)"
       id="g48"><path
         id="path50"
         style="fill:#1baa88;fill-opacity:1;fill-rule:nonzero;stroke:none"
         d="M 0,0 -13.595,-44.415 H -14.01 L -25.114,0 h -17.33 l -11.208,-44.415 h -0.416 L -67.246,0 h -16.189 l 20.027,-57.385 h 19.51 l 9.86,40.158 9.443,-40.158 H -4.773 L 16.081,0 Z" /></g><g
       id="g52"><g
         clip-path="url(#clipPath58)"
         id="g54"><g
           transform="translate(766.8091,83.743)"
           id="g60"><path
             id="path62"
             style="fill:#1baa88;fill-opacity:1;fill-rule:evenodd;stroke:none"
             d="M 0,0 C 9.439,0 16.91,6.64 16.91,17.12 16.91,27.6 9.439,34.242 0,34.242 -9.55,34.242 -17.021,27.6 -17.021,17.12 -17.021,6.64 -9.55,0 0,0 m 0,-12.98 c -17.12,0 -32.28,12.14 -32.28,30.1 0,17.952 15.16,30.094 32.28,30.094 17.12,0 32.27,-12.142 32.27,-30.094 0,-17.96 -15.15,-30.1 -32.27,-30.1" /></g></g></g><g
       id="g64"><g
         clip-path="url(#clipPath70)"
         id="g66"><path
           id="path72"
           style="fill:#1baa88;fill-opacity:1;fill-rule:nonzero;stroke:none"
           d="m 729.529,65.763 h 74.55 v 70.194 h -74.55 z" /></g></g><g
       id="g74"><g
         clip-path="url(#clipPath80)"
         id="g76"><g
           transform="translate(823.5688,98.3729)"
           id="g82"><path
             id="path84"
             style="fill:#1baa88;fill-opacity:1;fill-rule:evenodd;stroke:none"
             d="m 0,0 h 18.061 c 5.399,0 9.239,2.8 9.239,8.4 0,5.504 -3.84,8.929 -9.239,8.929 H 0 Z m 18.68,31.235 c 13.81,0 23.98,-9.237 23.98,-22.835 0,-8.51 -3.95,-15.04 -10.38,-18.879 l 8.71,-15.67 H 24.391 l -6.54,12.239 H 0 v -12.239 h -15.25 v 57.384 z" /></g></g></g><g
       id="g86"><g
         clip-path="url(#clipPath92)"
         id="g88"><path
           id="path94"
           style="fill:#1baa88;fill-opacity:1;fill-rule:nonzero;stroke:none"
           d="m 803.319,67.223 h 67.91 v 67.384 h -67.91 z" /></g></g><g
       id="g96"><g
         clip-path="url(#clipPath102)"
         id="g98"><g
           transform="translate(889.1587,129.6082)"
           id="g104"><path
             id="path106"
             style="fill:#1baa88;fill-opacity:1;fill-rule:evenodd;stroke:none"
             d="M 0,0 V -20.235 H 13.49 L 27.29,0 H 44.931 L 26.46,-26.565 46.181,-57.385 H 28.021 L 13.91,-34.245 H 0 v -23.14 H -15.149 V 0 Z" /></g></g></g><g
       id="g108"><g
         clip-path="url(#clipPath114)"
         id="g110"><path
           id="path116"
           style="fill:#1baa88;fill-opacity:1;fill-rule:nonzero;stroke:none"
           d="m 869.009,67.223 h 71.33 v 67.384 h -71.33 z" /></g></g><g
       id="g118"><g
         clip-path="url(#clipPath124)"
         id="g120"><g
           transform="translate(1002.7886,83.743)"
           id="g126"><path
             id="path128"
             style="fill:#1baa88;fill-opacity:1;fill-rule:evenodd;stroke:none"
             d="M 0,0 C 9.45,0 16.921,6.64 16.921,17.12 16.921,27.6 9.45,34.242 0,34.242 -9.54,34.242 -17.02,27.6 -17.02,17.12 -17.02,6.64 -9.54,0 0,0 m 0,-12.98 c -17.119,0 -32.27,12.14 -32.27,30.1 0,17.952 15.151,30.094 32.27,30.094 17.131,0 32.28,-12.142 32.28,-30.094 0,-17.96 -15.149,-30.1 -32.28,-30.1" /></g></g></g><g
       id="g130"><g
         clip-path="url(#clipPath136)"
         id="g132"><path
           id="path138"
           style="fill:#1baa88;fill-opacity:1;fill-rule:nonzero;stroke:none"
           d="m 965.519,65.763 h 74.55 v 70.194 h -74.55 z" /></g></g><g
       id="g140"><g
         clip-path="url(#clipPath146)"
         id="g142"><g
           transform="translate(1059.5591,129.6082)"
           id="g148"><path
             id="path150"
             style="fill:#1baa88;fill-opacity:1;fill-rule:evenodd;stroke:none"
             d="m 0,0 v -43.585 h 37.88 v -13.8 h -53.14 l 0,57.385 z" /></g></g></g><g
       id="g152"><g
         clip-path="url(#clipPath158)"
         id="g154"><path
           id="path160"
           style="fill:#1baa88;fill-opacity:1;fill-rule:nonzero;stroke:none"
           d="m 1039.299,67.223 h 63.14 v 67.384 h -63.14 z" /></g></g><g
       id="g162"><g
         clip-path="url(#clipPath168)"
         id="g164"><g
           transform="translate(1111.4487,129.6082)"
           id="g170"><path
             id="path172"
             style="fill:#1baa88;fill-opacity:1;fill-rule:evenodd;stroke:none"
             d="m 0,0 16.71,-28.745 h 0.41 L 33.101,0 h 17.54 L 23.97,-43.065 v -14.32 H 8.92 v 14.32 L -17.54,0 Z" /></g></g></g><g
       id="g174"><g
         clip-path="url(#clipPath180)"
         id="g176"><path
           id="path182"
           style="fill:#1baa88;fill-opacity:1;fill-rule:nonzero;stroke:none"
           d="m 1088.909,67.223 h 78.181 v 67.384 h -78.181 z" /></g></g><g
       id="g184"><g
         clip-path="url(#clipPath190)"
         id="g186"><g
           transform="translate(1189.4888,129.6082)"
           id="g192"><path
             id="path194"
             style="fill:#1baa88;fill-opacity:1;fill-rule:evenodd;stroke:none"
             d="M 0,0 17.851,-38.295 H 18.26 L 37.561,0 H 55.93 V -57.385 H 40.68 v 36.11 l -16.709,-36.11 h -12.25 l -16.391,36.11 v -36.11 h -14.84 l 0,57.385 z" /></g></g></g><g
       id="g196"><g
         clip-path="url(#clipPath202)"
         id="g198"><path
           id="path204"
           style="fill:#1baa88;fill-opacity:1;fill-rule:nonzero;stroke:none"
           d="m 1164.979,67.223 h 85.439 v 67.384 h -85.439 z" /></g></g><g
       id="g206"><g
         clip-path="url(#clipPath212)"
         id="g208"><g
           transform="translate(1270.4292,98.3729)"
           id="g214"><path
             id="path216"
             style="fill:#1baa88;fill-opacity:1;fill-rule:evenodd;stroke:none"
             d="m 0,0 h 18.06 c 5.4,0 9.24,2.8 9.24,8.4 0,5.504 -3.84,8.929 -9.24,8.929 H 0 Z m 18.68,31.235 c 13.809,0 23.98,-9.237 23.98,-22.835 0,-13.589 -10.171,-22.31 -23.98,-22.31 H 0 v -12.239 h -15.25 v 57.384 z" /></g></g></g><g
       id="g218"><g
         clip-path="url(#clipPath224)"
         id="g220"><path
           id="path226"
           style="fill:#1baa88;fill-opacity:1;fill-rule:nonzero;stroke:none"
           d="m 1250.179,67.223 h 67.91 v 67.384 h -67.91 z" /></g></g><g
       id="g228"><g
         clip-path="url(#clipPath234)"
         id="g230"><g
           transform="translate(1335.8091,129.6082)"
           id="g236"><path
             id="path238"
             style="fill:#1baa88;fill-opacity:1;fill-rule:evenodd;stroke:none"
             d="m 0,0 v -29.365 c 0,-10.17 4.47,-16.09 14.32,-16.09 9.76,0 14.22,5.92 14.22,16.09 V 0 H 43.9 v -29.266 c 0,-18.989 -11.52,-29.58 -29.58,-29.58 -18.05,0 -29.57,10.591 -29.57,29.58 V 0 H 0" /></g></g></g><g
       id="g240"><g
         clip-path="url(#clipPath246)"
         id="g242"><path
           id="path248"
           style="fill:#1baa88;fill-opacity:1;fill-rule:nonzero;stroke:none"
           d="m 1315.559,65.763 h 69.15 v 68.845 h -69.15 z" /></g></g><g
       id="g250"><g
         clip-path="url(#clipPath256)"
         id="g252"><g
           transform="translate(1439.7993,110.6131)"
           id="g258"><path
             id="path260"
             style="fill:#1baa88;fill-opacity:1;fill-rule:evenodd;stroke:none"
             d="m 0,0 c -6.641,4.881 -13.601,6.749 -22.521,6.749 -9.759,0 -11.939,-2.179 -11.939,-4.67 0,-2.39 2.489,-2.799 5.92,-3.219 l 16.71,-1.87 C 0.83,-4.561 8.609,-9.65 8.609,-20.75 c 0,-13.18 -13.08,-19.101 -30.299,-19.101 -11.941,0 -20.861,2.601 -30.3,9.761 l 7.16,11.83 c 7.779,-5.5 15.67,-8.301 24.49,-8.301 7.88,0 14.11,1.761 14.11,5.601 0,1.97 -0.52,3.01 -4.151,3.32 l -19.72,2.28 C -42.24,-13.9 -49.5,-9.13 -49.5,1.976 c 0,12.556 12.14,18.368 26.979,18.368 11,0 20.75,-2.076 29.89,-9.133 L 0,0" /></g></g></g><g
       id="g262"><g
         clip-path="url(#clipPath268)"
         id="g264"><path
           id="path270"
           style="fill:#1baa88;fill-opacity:1;fill-rule:nonzero;stroke:none"
           d="m 1382.809,65.763 h 70.6 v 70.194 h -70.6 z" /></g></g><g
       id="g272"><g
         clip-path="url(#clipPath278)"
         id="g274"><path
           id="path280"
           style="fill:#1baa88;fill-opacity:1;fill-rule:nonzero;stroke:none"
           d="M 0,0 H 412.948 V 223.812 H 0 Z" /></g></g><g
       id="g282"><g
         clip-path="url(#clipPath288)"
         id="g284"><path
           id="path290"
           style="fill:#1baa88;fill-opacity:1;fill-rule:nonzero;stroke:none"
           d="m 231.196,80.88 h 18.003 v 17.96 h -18.003 z" /></g></g><g
       id="g292"><g
         clip-path="url(#clipPath298)"
         id="g294"><path
           id="path300"
           style="fill:#1baa88;fill-opacity:1;fill-rule:nonzero;stroke:none"
           d="m 172.203,21.9 h 42.06 v 42.08 h -42.06 z" /></g></g><g
       id="g302"><g
         clip-path="url(#clipPath308)"
         id="g304"><path
           id="path310"
           style="fill:#209578;fill-opacity:1;fill-rule:nonzero;stroke:none"
           d="M 204.263,33.54 H 254.88 V 90.88 H 204.263 Z" /></g></g></g></svg>